<?xml version="1.0" encoding="UTF-8"?>
<!DOCTYPE svg PUBLIC "-//W3C//DTD SVG 1.1//EN" "http://www.w3.org/Graphics/SVG/1.1/DTD/svg11.dtd">
<svg xmlns="http://www.w3.org/2000/svg" version="1.1" width="1080px" height="575px" style="shape-rendering:geometricPrecision; text-rendering:geometricPrecision; image-rendering:optimizeQuality; fill-rule:evenodd; clip-rule:evenodd" xmlns:xlink="http://www.w3.org/1999/xlink">
<g><path style="opacity:0.634" fill="#000" d="M 664.5,29.5 C 689.816,30.7758 713.149,37.9425 734.5,51C 756.248,67.0834 770.415,88.25 777,114.5C 785.35,160.135 777.35,202.469 753,241.5C 717.571,284.927 685.905,282.26 658,233.5C 652.568,220.773 647.902,207.773 644,194.5C 641.081,179.319 637.414,164.319 633,149.5C 624.669,177.815 616.335,206.148 608,234.5C 600.409,260.261 590.409,284.928 578,308.5C 564.812,328.21 550.145,329.543 534,312.5C 518.386,289.706 507.386,264.706 501,237.5C 487.175,182.638 482.175,126.971 486,70.5C 487.011,69.6634 488.178,69.33 489.5,69.5C 488.817,126.963 494.984,183.629 508,239.5C 513.524,260.209 521.524,279.875 532,298.5C 536.116,306.283 541.95,312.45 549.5,317C 556.324,318.945 561.824,317.112 566,311.5C 573.653,300.527 579.986,288.86 585,276.5C 599.686,235.775 612.353,194.441 623,152.5C 624.369,147.045 626.869,142.211 630.5,138C 632.635,137.365 634.635,137.699 636.5,139C 638.563,141.511 640.063,144.344 641,147.5C 645.491,167.288 650.491,186.955 656,206.5C 660.969,222.105 668.302,236.438 678,249.5C 694.73,266.325 711.897,266.825 729.5,251C 743.777,237.396 753.944,221.229 760,202.5C 770.134,172.966 771.8,142.966 765,112.5C 755.461,79.9545 734.961,57.1212 703.5,44C 696.898,41.466 690.231,39.1326 683.5,37C 676.81,36.2736 670.144,35.4402 663.5,34.5C 663.366,32.7085 663.699,31.0418 664.5,29.5 Z"/></g>
<g><path style="opacity:0.649" fill="#000" d="M 48.5,78.5 C 50.1439,78.2865 51.6439,78.6198 53,79.5C 61.8096,91.4479 68.8096,104.448 74,118.5C 103.43,191.87 128.097,266.87 148,343.5C 167.873,245.094 210.539,158.427 276,83.5C 277.264,81.393 279.097,80.393 281.5,80.5C 281.509,82.3084 281.009,83.9751 280,85.5C 275.377,91.7921 270.377,97.7921 265,103.5C 255.181,120.469 244.847,137.136 234,153.5C 202.844,205.35 179.511,260.684 164,319.5C 160.449,334.203 157.616,349.036 155.5,364C 160.39,376.472 168.723,385.805 180.5,392C 184.779,393.244 189.112,393.577 193.5,393C 199.364,391.732 205.031,389.899 210.5,387.5C 210.556,368.501 215.39,350.835 225,334.5C 233.334,323.494 240.667,324.16 247,336.5C 250.051,349.245 247.718,360.912 240,371.5C 234.626,378.541 228.293,384.541 221,389.5C 220.96,394.695 223.627,397.361 229,397.5C 234.384,397.115 239.217,395.282 243.5,392C 257.219,381.281 271.219,370.948 285.5,361C 287.833,360.333 290.167,360.333 292.5,361C 296.826,364.326 300.826,367.993 304.5,372C 307.03,373.422 309.697,373.755 312.5,373C 335.086,362.35 357.752,351.684 380.5,341C 396.182,335.834 411.848,330.834 427.5,326C 435.297,321.934 442.964,317.601 450.5,313C 453.941,310.946 457.608,309.446 461.5,308.5C 461.5,307.5 461.5,306.5 461.5,305.5C 466.213,305.468 467.713,307.801 466,312.5C 463.605,317.233 460.105,321.067 455.5,324C 435.406,336.212 413.74,344.212 390.5,348C 368.194,356.656 346.528,366.656 325.5,378C 318.524,381.44 311.19,382.774 303.5,382C 298.099,380.299 293.766,377.132 290.5,372.5C 289.277,371.386 287.944,371.219 286.5,372C 273.989,380.755 261.656,389.755 249.5,399C 244.59,401.623 239.59,403.956 234.5,406C 223.968,408.15 216.468,404.317 212,394.5C 189.497,406.457 171.164,401.791 157,380.5C 160.803,400.064 164.47,419.731 168,439.5C 173.164,470.976 175.498,502.643 175,534.5C 170.496,547.129 164.496,547.796 157,536.5C 149.397,518.713 144.73,500.047 143,480.5C 139.32,441.604 139.82,402.77 144.5,364C 136.132,325.029 125.966,286.529 114,248.5C 98.7198,201.665 82.3864,155.331 65,109.5C 59.9425,98.707 54.4425,88.3737 48.5,78.5 Z M 235.5,336.5 C 238.881,339.278 240.547,342.945 240.5,347.5C 237.905,360.686 231.238,371.353 220.5,379.5C 221.055,363.613 226.055,349.28 235.5,336.5 Z M 151.5,396.5 C 160.446,434.693 166.112,473.527 168.5,513C 168.677,519.313 167.844,525.479 166,531.5C 162.797,525.181 160.464,518.515 159,511.5C 151.597,473.51 149.097,435.177 151.5,396.5 Z"/></g>
<g><path style="opacity:0.654" fill="#000" d="M 946.5,170.5 C 951.597,170.673 953.93,173.339 953.5,178.5C 953.333,179.833 953.167,181.167 953,182.5C 948.292,188.999 945.959,196.332 946,204.5C 945.333,216.167 945.333,227.833 946,239.5C 951.984,233.236 958.151,227.07 964.5,221C 981.157,207.345 997.824,193.678 1014.5,180C 1016.47,179.505 1018.47,179.338 1020.5,179.5C 1020.66,181.527 1020.5,183.527 1020,185.5C 993.112,206.385 968.446,229.718 946,255.5C 946.763,283.322 947.597,311.155 948.5,339C 949.336,369.187 944.503,398.354 934,426.5C 930.192,434.603 925.025,441.77 918.5,448C 900.065,460.528 885.899,456.694 876,436.5C 869.52,416.843 868.186,396.843 872,376.5C 881.68,328.473 903.013,286.473 936,250.5C 936.23,233.399 936.896,216.399 938,199.5C 931.361,206.05 923.361,209.717 914,210.5C 912.293,210.352 910.626,210.018 909,209.5C 899.911,214.864 890.244,218.864 880,221.5C 874.997,221.171 871.331,218.837 869,214.5C 855.687,223.807 841.853,232.307 827.5,240C 823.556,240.99 819.889,240.49 816.5,238.5C 813.978,241.188 811.644,244.021 809.5,247C 807.783,248.559 805.783,249.392 803.5,249.5C 803.34,247.801 803.506,246.134 804,244.5C 805.919,242.309 807.253,239.976 808,237.5C 801.745,243.759 794.912,249.259 787.5,254C 784.854,254.497 782.187,254.664 779.5,254.5C 778.17,250.797 778.336,247.13 780,243.5C 785.835,230.679 794.001,219.512 804.5,210C 811.09,208.148 816.59,209.648 821,214.5C 825.092,220.335 825.592,226.501 822.5,233C 827.955,231.28 833.289,228.947 838.5,226C 848.5,218.666 858.833,211.833 869.5,205.5C 873.404,206.403 876.071,208.736 877.5,212.5C 878.607,213.022 879.774,213.355 881,213.5C 889.345,211.723 896.845,208.223 903.5,203C 905.355,202.578 907.189,202.078 909,201.5C 912.121,202.536 915.287,202.703 918.5,202C 933.534,196.351 942.867,185.851 946.5,170.5 Z M 789.5,242.5 C 794.089,233.066 800.089,224.566 807.5,217C 809.5,216.333 811.5,216.333 813.5,217C 814.517,218.049 814.684,219.216 814,220.5C 807.186,229.488 799.02,236.821 789.5,242.5 Z M 936.5,265.5 C 937.317,267.969 937.817,270.635 938,273.5C 939.555,302.153 940.222,330.819 940,359.5C 939.608,384.403 933.608,407.736 922,429.5C 918.167,434.667 913.667,439.167 908.5,443C 899.446,446.428 892.613,443.928 888,435.5C 883.028,424.579 880.861,413.079 881.5,401C 882.544,374.214 888.71,348.714 900,324.5C 910.606,303.814 922.773,284.147 936.5,265.5 Z"/></g>
<g><path style="opacity:0.528" fill="#000" d="M 317.5,301.5 C 319.865,302.008 322.199,302.675 324.5,303.5C 327.021,302.215 329.687,301.548 332.5,301.5C 332.719,302.675 332.386,303.675 331.5,304.5C 327.158,304.59 323.825,306.423 321.5,310C 317.931,311.799 314.264,313.299 310.5,314.5C 305.662,313.744 304.328,311.078 306.5,306.5C 309.994,304.234 313.66,302.567 317.5,301.5 Z"/></g>
</svg>